<?xml version="1.0" encoding="UTF-8"?>
<svg version="1.1" xmlns="http://www.w3.org/2000/svg" width="500" height="500">
<path d="M0 0 C165 0 330 0 500 0 C500 165 500 330 500 500 C335 500 170 500 0 500 C0 335 0 170 0 0 Z " fill="#FEFEFE" transform="translate(0,0)"/>
<path d="M0 0 C6.93 0 13.86 0 21 0 C21.33 7.26 21.66 14.52 22 22 C24.31 20.35 26.62 18.7 29 17 C36.27349472 15.18162632 40.62960379 15.45332252 47.03515625 19.04296875 C50.00237527 20.48823448 52.73016266 20.72751356 56 21 C56.495 23.475 56.495 23.475 57 26 C57.7425 25.38125 58.485 24.7625 59.25 24.125 C64.75103702 19.87419867 69.1267795 19.14471169 76 20 C80.33798557 21.48001861 83.99101098 23.49411371 87 27 C87 27.66 87 28.32 87 29 C87.75925781 28.43410156 88.51851563 27.86820313 89.30078125 27.28515625 C90.29464844 26.55167969 91.28851563 25.81820312 92.3125 25.0625 C93.29863281 24.33160156 94.28476562 23.60070312 95.30078125 22.84765625 C100.29311001 19.43033136 105.13072296 19.38172304 111 20 C117.72889718 22.03729586 121.22721943 25.96708429 125.12060547 31.62988281 C126.49831167 35.34303435 126.24400067 38.99556609 126.1953125 42.921875 C126.1924826 43.78186096 126.18965271 44.64184692 126.18673706 45.52789307 C126.1755615 48.26873821 126.15046179 51.00925398 126.125 53.75 C126.1149668 55.61067236 126.10584155 57.47134985 126.09765625 59.33203125 C126.07733414 63.88824915 126.03818081 68.44375682 126 73 C119.4 73 112.8 73 106 73 C105.96261719 70.79699219 105.92523438 68.59398437 105.88671875 66.32421875 C105.8405002 64.18943379 105.78926805 62.05482395 105.73754883 59.92016602 C105.70430577 58.43720146 105.67627177 56.95411056 105.65356445 55.47094727 C105.62000532 53.33815707 105.56769362 51.20652388 105.51171875 49.07421875 C105.48553467 47.79119873 105.45935059 46.50817871 105.43237305 45.1862793 C105.25058302 42.05825256 105.25058302 42.05825256 103.68676758 40.08129883 C100.82076963 38.24405684 98.28814813 38.64769841 95 39 C93.17560546 40.01486409 93.17560546 40.01486409 92 42 C91.49141092 45.29271596 91.49141092 45.29271596 91.48828125 49.07421875 C91.46135445 50.09996758 91.46135445 50.09996758 91.43388367 51.1464386 C91.37977925 53.32673 91.3458866 55.50680256 91.3125 57.6875 C91.2793268 59.16734817 91.24483713 60.64716745 91.20898438 62.12695312 C91.12157644 65.75133351 91.06151737 69.37471773 91 73 C84.4 73 77.8 73 71 73 C70.97421875 70.79699219 70.9484375 68.59398437 70.921875 66.32421875 C70.88345603 64.18940479 70.83829586 62.05483252 70.79248047 59.92016602 C70.76426459 58.43721058 70.74305298 56.95410457 70.72900391 55.47094727 C70.7075808 53.33792003 70.66094218 51.20670394 70.609375 49.07421875 C70.5779541 47.14968872 70.5779541 47.14968872 70.54589844 45.1862793 C70.29867316 41.95073245 70.29867316 41.95073245 68.15332031 40.08129883 C65.23536437 38.61603501 63.22127276 38.58877369 60 39 C58.21056002 40.02619687 58.21056002 40.02619687 57 42 C56.49141092 45.29271596 56.49141092 45.29271596 56.48828125 49.07421875 C56.47033005 49.7580513 56.45237885 50.44188385 56.43388367 51.1464386 C56.37977925 53.32673 56.3458866 55.50680256 56.3125 57.6875 C56.2793268 59.16734817 56.24483713 60.64716745 56.20898438 62.12695312 C56.12157644 65.75133351 56.06151737 69.37471773 56 73 C49.07 73 42.14 73 35 73 C34.94392578 69.15408203 34.94392578 69.15408203 34.88671875 65.23046875 C34.84051164 62.74820405 34.78927515 60.26609064 34.73754883 57.78393555 C34.70428828 56.05844307 34.67625981 54.33284151 34.65356445 52.60717773 C34.62003847 50.12696834 34.56772594 47.6477597 34.51171875 45.16796875 C34.50532883 44.39599655 34.4989389 43.62402435 34.49235535 42.82865906 C34.39598534 38.68317833 34.39598534 38.68317833 32.65551758 35.01293945 C30.03216353 33.40782281 27.99385265 33.62576842 25 34 C23.20226632 35.01076124 23.20226632 35.01076124 22 37 C21.6692937 39.50728032 21.5117282 41.78137387 21.48828125 44.29296875 C21.47033005 44.99899734 21.45237885 45.70502594 21.43388367 46.43244934 C21.37976822 48.68407241 21.34588278 50.93548343 21.3125 53.1875 C21.27932781 54.71552431 21.24483823 56.24352063 21.20898438 57.77148438 C21.12156266 61.51435357 21.06151193 65.25625647 21 69 C14.07 69 7.14 69 0 69 C0 46.23 0 23.46 0 0 Z " fill="#030303" transform="translate(187,209)"/>
</svg>
